{"title":"Final destination 5 (2011)","uid":6613907,"size":1145205648,"categoryP":"video","categoryS":"movies","magnet":"?xt=urn:btih:a440507f4f2d6807523650d9c071a039cd753ed0&amp;dn=Final+destination+5+%282011%29&amp;tr=udp%3A%2F%2Ftracker.openbittorrent.com%3A80&amp;tr=udp%3A%2F%2Fopen.demonii.com%3A1337&amp;tr=udp%3A%2F%2Ftracker.coppersurfer.tk%3A6969&amp;tr=udp%3A%2F%2Fexodus.desync.com%3A6969","seeders":1,"leechers":0,"uploader":"stu181","files":1,"time":1313702271,"description":"Format                           : AVI\nFormat/Info                      : Audio Video Interleave\nFile size                        : 1.07 GiB\nDuration                         : 1h 27mn\nOverall bit rate                 : 1 754 Kbps\nWriting library                  : VirtualDub build 32842/release\n\nVideo\nID                               : 0\nFormat                           : MPEG-4 Visual\nFormat profile                   : Advanced Simple@L5\nFormat settings, BVOP            : 2\nFormat settings, QPel            : No\nFormat settings, GMC             : No warppoints\nFormat settings, Matrix          : Default (H.263)\nMuxing mode                      : Packed bitstream\nCodec ID                         : XVID\nCodec ID/Hint                    : XviD\nDuration                         : 1h 27mn\nBit rate                         : 1 618 Kbps\nWidth                            : 672 pixels\nHeight                           : 358 pixels\nDisplay aspect ratio             : 1.877\nFrame rate                       : 23.976 fps\nColor space                      : YUV\nChroma subsampling               : 4:2:0\nBit depth                        : 8 bits\nScan type                        : Progressive\nCompression mode                 : Lossy\nBits/(Pixel*Frame)               : 0.281\nStream size                      : 1 008 MiB (92%)\nWriting library                  : XviD 64\n\nAudio\nID                               : 1\nFormat                           : MPEG Audio\nFormat version                   : Version 1\nFormat profile                   : Layer 3\nCodec ID                         : 55\nCodec ID/Hint                    : MP3\nDuration                         : 1h 25mn\nBit rate mode                    : Constant\nBit rate                         : 128 Kbps\nChannel(s)                       : 2 channels\nSampling rate                    : 44.1 KHz\nCompression mode                 : Lossy\nStream size                      : 78.6 MiB (7%)\nAlignment                        : Split accross interleaves\nInterleave, duration             : 42 ms (1.01 video frame)\nInterleave, preload duration     : 500 ms\nWriting library                  : LAME3.98.4\n","torrent":{"xt":"urn:btih:a440507f4f2d6807523650d9c071a039cd753ed0","amp;dn":"Final+destination+5+%282011%29","amp;tr":["udp%3A%2F%2Ftracker.openbittorrent.com%3A80","udp%3A%2F%2Fopen.demonii.com%3A1337","udp%3A%2F%2Ftracker.coppersurfer.tk%3A6969","udp%3A%2F%2Fexodus.desync.com%3A6969"],"infoHash":"a440507f4f2d6807523650d9c071a039cd753ed0","infoHashBuffer":{"type":"Buffer","data":[164,64,80,127,79,45,104,7,82,54,80,217,192,113,160,57,205,117,62,208]},"announce":[],"urlList":[]}}